<svg width="21" height="21" viewBox="0 0 21 21" fill="none" xmlns="http://www.w3.org/2000/svg">
<mask id="path-1-inside-1_3626_1701" fill="white">
<path fill-rule="evenodd" clip-rule="evenodd" d="M7.37498 20.9166H4.36572C2.63983 20.9166 1.24072 19.5175 1.24072 17.7916L1.2406 7.37492H0.083313L10.5 0.083252L20.9166 7.37492H19.801L19.8014 17.7916C19.8014 19.5175 18.4023 20.9166 16.6764 20.9166H13.625H7.37498ZM7.37498 20.9166V12.5833H13.625V20.9166"/>
</mask>
<path fill-rule="evenodd" clip-rule="evenodd" d="M7.37498 20.9166H4.36572C2.63983 20.9166 1.24072 19.5175 1.24072 17.7916L1.2406 7.37492H0.083313L10.5 0.083252L20.9166 7.37492H19.801L19.8014 17.7916C19.8014 19.5175 18.4023 20.9166 16.6764 20.9166H13.625H7.37498ZM7.37498 20.9166V12.5833H13.625V20.9166" fill="white"/>
<path d="M1.24072 17.7916H2.24072V17.7916L1.24072 17.7916ZM1.2406 7.37492L2.2406 7.37491L2.24059 6.37492H1.2406V7.37492ZM0.083313 7.37492L-0.490149 6.55569L-3.08905 8.37492H0.083313V7.37492ZM10.5 0.083252L11.0734 -0.73598L10.5 -1.1374L9.92652 -0.73598L10.5 0.083252ZM20.9166 7.37492V8.37492H24.089L21.4901 6.55569L20.9166 7.37492ZM19.801 7.37492V6.37492H18.801L18.801 7.37496L19.801 7.37492ZM19.8014 17.7916H20.8014V17.7915L19.8014 17.7916ZM7.37498 12.5833V11.5833H6.37498V12.5833H7.37498ZM13.625 12.5833H14.625V11.5833H13.625V12.5833ZM7.37498 19.9166H4.36572V21.9166H7.37498V19.9166ZM4.36572 19.9166C3.19212 19.9166 2.24072 18.9652 2.24072 17.7916H0.240721C0.240721 20.0698 2.08755 21.9166 4.36572 21.9166V19.9166ZM2.24072 17.7916L2.2406 7.37491L0.240605 7.37493L0.240721 17.7916L2.24072 17.7916ZM1.2406 6.37492H0.083313V8.37492H1.2406V6.37492ZM0.656775 8.19415L11.0734 0.902484L9.92652 -0.73598L-0.490149 6.55569L0.656775 8.19415ZM9.92652 0.902484L20.3432 8.19415L21.4901 6.55569L11.0734 -0.73598L9.92652 0.902484ZM20.9166 6.37492H19.801V8.37492H20.9166V6.37492ZM18.801 7.37496L18.8014 17.7916L20.8014 17.7915L20.801 7.37488L18.801 7.37496ZM18.8014 17.7916C18.8014 18.9652 17.85 19.9166 16.6764 19.9166V21.9166C18.9546 21.9166 20.8014 20.0698 20.8014 17.7916H18.8014ZM16.6764 19.9166H13.625V21.9166H16.6764V19.9166ZM13.625 19.9166H7.37498V21.9166H13.625V19.9166ZM8.37498 20.9166V12.5833H6.37498V20.9166H8.37498ZM7.37498 13.5833H13.625V11.5833H7.37498V13.5833ZM12.625 12.5833V20.9166H14.625V12.5833H12.625Z" fill="#8A99B1" mask="url(#path-1-inside-1_3626_1701)"/>
</svg>
