<svg width="21" height="19" viewBox="0 0 21 19" fill="none" xmlns="http://www.w3.org/2000/svg">
<path d="M10.504 18.1606L2.08626 9.57397C2.0859 9.5736 2.08553 9.57322 2.08517 9.57285C1.12203 8.57808 0.583496 7.2477 0.583496 5.86302C0.583496 4.47794 1.12234 3.14719 2.08601 2.15232C3.03523 1.17476 4.34102 0.625 5.70214 0.625C7.06334 0.625 8.36918 1.17482 9.31841 2.15247L9.32008 2.15418L10.1472 2.99793L10.506 3.36403L10.8631 2.99611L11.6817 2.15247C12.631 1.17478 13.9358 0.625 15.298 0.625C16.6601 0.625 17.965 1.17475 18.9143 2.15143C19.8778 3.14628 20.4166 4.47697 20.4166 5.86198C20.4166 7.24673 19.878 8.57717 18.9148 9.57195C18.9145 9.57228 18.9142 9.57261 18.9139 9.57293L10.504 18.1606Z" fill="#0072BA" stroke="#0072BA"/>
</svg>
